<svg xmlns="http://www.w3.org/2000/svg" viewBox="0 0 880.15 130.11" width="880.15" height="130.11"><title>Asset 3</title><g id="Layer_2" data-name="Layer 2"><g id="Layer_1-2" data-name="Layer 1"><path d="M607.73,6.6,608,.41h26.15c.81.28.94,1.11,1.38,1.69a9.62,9.62,0,0,0,.17,1c4.9,17.44,9.75,34.9,14.75,52.32,1.41,4.92,2.44,10,4.43,14.72.19.88-.24,1.92.68,3a4.67,4.67,0,0,0,.12-3.18c0-.91.11-1.82.11-2.73q0-27.16,0-54.32a12.74,12.74,0,0,0-.21-4.21c.64-2.67-.15-5.46.59-8.34h20.19c.7,9.17-.06,18.2.56,27.17,0,10.08-.12,20.16-.13,30.23q0,34.12,0,68.24c0,1.14.28,2.34-.54,3.59h-23l-21.76-83-1.68-6.78L629,40V129.5H608.32c-.63-.84-.38-1.79-.38-2.68q0-45.87,0-91.74C607.92,25.59,607.8,16.1,607.73,6.6Z"/><path d="M494.33,39c0-12.8,0-25.6,0-38.6h20.78V56H538.6c.77-.82.43-1.87.43-2.83q0-24.85,0-49.7c0-1.1-.42-2.39.88-3.16,6.57-.39,13.14-.2,19.43-.11.93,1.13.63,2.08.74,3q0,20.47-.08,40.94,0,21.22,0,42.44c0,1.8-.41,3.7,1.5,5.16-1.5,1-1.53,2.2-1.53,3.55,0,10.4,0,20.8,0,31.21,0,1,0,2,0,3.21-7,.14-13.81.32-21,0V100l0-3.54V74H515.25c.16,5.74-.25,11.36.26,17v.52c-.32,7.65-.25,15.3,0,23a2.28,2.28,0,0,0,0,2.06v13H494.29c0-12.21,0-24.32,0-36.43a40.18,40.18,0,0,0-.13-8.72l.15-1.78c-.07-1.91.38-3.83-.1-5.73q0-9.38,0-18.76a30.55,30.55,0,0,0,0-6.7l.06-5.35-.08-1.65.05-2.3Z"/><path d="M330,30.48a21.38,21.38,0,0,0,.16,7.17c-.59,4.6-.14,9.21-.19,13.81a10.8,10.8,0,0,0,.63,4.7h11.2L352,56.09c2,.6,2-.82,1.95-2.09,0-5.36-.11-10.73-.17-16.09l.1-3.78a8.35,8.35,0,0,0-.21-3.23l.09-4.25.06-1.71.11-8.34-.22-4.23.11-1.21c0-3.53,0-7.07,0-10.65,4.12-1.28,8,.32,11.79-.21l2.38-.19A4,4,0,0,0,371,.2l3.44.12c.83,2.39.09,4.87.43,7.29l0,1.09a6.82,6.82,0,0,0-.06,3.86l.05,6.67a11.11,11.11,0,0,0,.12,5.88q0,1.65,0,3.3a1.59,1.59,0,0,0,0,1.69,7.65,7.65,0,0,0-.08,3.36c.19,4.87-.69,9.73,0,14.6l0,7.49a33.77,33.77,0,0,0,0,8l0,16.78c-.06,1.75-.41,3.5.14,5.24-.38,7.65-.24,15.31-.17,23-.44,1,.39,2,.1,3-.06,4.74-.12,9.47-.2,14.21a7.82,7.82,0,0,1-.42,3.73H353.77V74H330c0,8.3,0,16.43,0,24.56l.12,2.12v28.88H309c0-15.72,0-31.34,0-47l0-2.08V78.59q0-3.06,0-6.11,0-1.67,0-3.33c-.16-1.55.32-3.15-.44-4.64,1-2.76.31-5.62.49-8.42l-.1-1.63.09-4.87-.1-1.13.06-.85,0-2.13q0-3.17,0-6.34l-.09-3.21.05-5.78V.15c7.1-.09,13.88-.28,20.85.09.5,4.62.19,8.84.34,13,.11,3-.6,6,.27,8.92C329.43,24.94,330.1,27.72,330,30.48Z"/><path d="M688.52,28.54c.57-3.1.76-6.26,1.73-9.29C693.7,8.41,702.37,1.62,714.36.63a50.56,50.56,0,0,1,17.36,1.14C742.46,4.64,750.09,14.25,751,25.63c.41,5.16.44,10.3.54,15.46-.21,1,.17,2-.52,3.18h-20.7V31.11a14.49,14.49,0,0,0-.64-6.41C727.78,18,718.34,15.4,713.17,20a1.8,1.8,0,0,0-.79,1.21c-2.48,2.2-2.76,5.26-2.78,8.2-.11,14.49-.06,29-.08,43.48q0,13.62-.06,27.24a23.86,23.86,0,0,0,.9,6.91,7,7,0,0,0,7.13,5.47c1.25,0,2.5.06,3.75,0,5.28-.35,8.85-3.32,9.06-8.52.33-8.22.09-16.47.09-25L716,83.72c-.91-1.57-.16-2.34.72-3l29.49-23.52a4.68,4.68,0,0,1,4.81-.66,3.92,3.92,0,0,1,.42,2.54c0,12.83.05,25.66,0,38.48a45.45,45.45,0,0,1-1.92,14c-2.74,8.36-8.35,13.88-16.81,16.33a46.07,46.07,0,0,1-26.12-.11c-10.16-3-16.68-11.85-17.55-22.8-1.21-15.21-.38-30.47-.54-45.71C688.44,49,688.52,38.79,688.52,28.54Z"/><path d="M240,64.55V1.18a3.24,3.24,0,0,1,2.86-1c10.16.07,20.33-.41,30.47.43,10.34.86,18.44,5.39,23.15,15,2.74,5.58,3.43,11.64,3.49,17.74,0,3.74.41,7.48,0,11.23-.07.6-.27,1.36.49,1.78-.7,1.69-.34,3.47-.43,5.21-.28,2.21-.76,4.4-.39,6.64l-.35,1.18a24,24,0,0,0-1.77,5.72l-1.05,2.4A27.54,27.54,0,0,1,284,79.62a36.17,36.17,0,0,1-11.44,3l-1.69.06h-9.75v46.8H240.38c-.67-3-.06-6-.36-9l-.35-5.69.09-1.15.1-1.26a2.33,2.33,0,0,0,.07-1.81l-.14-2.72a9.56,9.56,0,0,0,.3-1.7Q240.05,85.37,240,64.55Zm21.37-43.61V64.65a25.06,25.06,0,0,0,6.18.27c6.31,0,10-2.84,10.85-9.05,1.29-9.1.67-18.28.35-27.42-.09-2.64-1-5.29-3.94-6.48C270.46,20.19,266,20.62,261.33,20.94Z"/><path d="M422.67,25.43a42,42,0,0,1,2-9.75C426.94,9.33,431,4.53,437.54,2.42c10.08-3.23,20.22-3.16,29.87,1.26s13.48,12.85,14.49,22.88c.28,2.81.31,5.65.45,8.47-2,1.2-4.29.25-6.41.6H464.66c-.76-5.24.51-10.71-3.52-14.83a5,5,0,0,0-4-1.92c-4-.71-8.07-1.82-11.52,1.6a5.54,5.54,0,0,0-1.77,2.61,3.7,3.7,0,0,0-.87,3,20.87,20.87,0,0,0,.46,11.49l.68,1.57c1.5,4.82,4.61,8.59,8,12.18,4.63,4.91,9.86,9.18,14.76,13.79l.8,1,3.76,4.07.88.94,5.26,7.85c1,1.85,1.08,4.18,2.75,5.74a1.58,1.58,0,0,0,.07,1.37c.17,2.23,1.55,4.21,1.36,6.52a40.93,40.93,0,0,1-1.25,18.91c-2.67,8-8,13.57-16,16.13a46.36,46.36,0,0,1-25.82.55c-9.23-2.33-14.77-8.34-17.62-17.16-1.09-3.42-.76-7.08-1.71-10.52V92c3.52-.89,6.84.06,10.07-.51l3,.15a16.7,16.7,0,0,0,4.93-.19,8,8,0,0,1,3.22.7l0,7.34.08,2.7c.32,10.32,8.21,11.82,14.84,9.7,5.18-1.65,5.74-6.34,6.1-10.92l-.34-2.05a15.44,15.44,0,0,0-.89-5.21,10.64,10.64,0,0,0-1.76-4.3,5,5,0,0,0-1.16-2.79l-1.89-2.66A29.51,29.51,0,0,0,449,76.63l-1-1.19-.56-.69a.88.88,0,0,0-.74-.72L446,73.5h0a4.68,4.68,0,0,0-2-2.08A38.2,38.2,0,0,0,439,66.52a64.84,64.84,0,0,1-12.4-16.77,33.24,33.24,0,0,1-3.19-10.17L422.84,35l-.05-.84a1.8,1.8,0,0,0-.17-1.58l0-5.53A1.84,1.84,0,0,0,422.67,25.43Z"/><path d="M574.84,9.13V.37h20.89c.75,2.76-.14,5.53.33,8.22q0,57.24-.1,114.49a32.48,32.48,0,0,1-.22,6.58H575.36a4.73,4.73,0,0,1-.37-2.81q0-57.62,0-115.24C575,10.78,574.91,10,574.84,9.13Z"/><path d="M410.56,50.62l0,6.36.21,6.21c-.56,4.7-.13,9.42-.19,14.13-.11,8.55,0,17.1,0,25.65q0,1.32,0,2.64c0,8,0,15.92,0,24h-20.6a5.41,5.41,0,0,1-.33-3q0-17.33,0-34.66c0-1-.1-2-.16-3,.42-.33.43-.66,0-1,.13-4.67.34-9.34.07-14,.75-2.23.2-4.42-.18-6.61,0-3.06.85-6.16-.43-9.11,1.63-3.72.23-7.58.68-11.32a2.9,2.9,0,0,0,0-2.46q0-1.25,0-2.49c.59-1.56.07-3.13.06-4.7-.05-7.15-.16-14.3-.24-21.45a30.92,30.92,0,0,0,.12-7.73c0-2.47-.4-5,.6-7.63h20.57c0,3.69,0,7.14,0,10.6q-.06,13.32-.12,26.65c0,1.91,0,3.82,0,5.73Z"/><path d="M809.9,130a2,2,0,0,1-1.81-1c0-4.89,0-10.34,0-15.8,0-2.76.56-5.54-.19-8.29l0-.71a11.86,11.86,0,0,0,.39-5.3V65c7.48.36,14.73-.84,21.85.58,6.94,1.38,10,4.87,10.82,12.32a54.06,54.06,0,0,1-.1,11.2A15.41,15.41,0,0,1,838,95.59l-.63.82-2.89,1.87a12.84,12.84,0,0,1,5.3,5.29,21.8,21.8,0,0,1,1.2,6c0,3.46.07,6.93.1,10.39v.59l0,1.91c-.05.8-.37,1.64.4,2.3-.8,1.41.2,2.75.17,4.13l-.23,1h-9.82a1.54,1.54,0,0,0-.89-1c-1.89-4.27-1.69-8.81-1.69-13.32l.08-2.5.05-1a1.47,1.47,0,0,0-.14-1.59,9.07,9.07,0,0,0-.35-3.89c-.73-2.68-2.62-3.36-5.1-3.12a3.4,3.4,0,0,0-3.17.11,16.67,16.67,0,0,0-.14,5.56l.15,1.71-.15,1.28-.11,3.84c0,2-.32,4.06.2,6.06l-.38,7.8h-7.53A3.47,3.47,0,0,0,809.9,130Zm10.41-55.73V94.54c1.22,0,2.21,0,3.2,0,4,0,5.39-1.3,5.53-5.32.1-2.57.09-5.15.06-7.72-.1-7.36-1-8.17-8.34-7.42A2.93,2.93,0,0,0,820.31,74.25Z"/><path d="M793.85,129.28c-3.39.4-6.76.76-10.15,0-5.9-1.37-9.6-4.93-11.11-10.79l-.22-4.49c0-10.9.06-21.79,0-32.69a19.23,19.23,0,0,1,2.82-10.66,9.94,9.94,0,0,1,5.56-4.14,22.24,22.24,0,0,1,15.57-.12c5.42,2,8.11,6.15,8.65,11.74.63,6.39.1,12.8.24,19.2,0,.91.15,1.81.23,2.71a7.88,7.88,0,0,0,.16,4.2,5,5,0,0,0-.23,3.07,22.74,22.74,0,0,0,.07,6.33c-.44,3-.6,6.09-2,8.89l-1.06,1.7L800,126.51A13,13,0,0,1,793.85,129.28Zm-2.8-8.62a4,4,0,0,0,2.07-3.66c.09-2.87.08-5.75.1-8.62,0-8.23.11-16.45.11-24.68a50.47,50.47,0,0,0-.34-6.22c-.32-2.59-1.63-3.62-4.19-3.64-3.2,0-4.48,1.55-4.48,5.77,0,11.64.06,23.28.1,34.92,0,.82,0,1.64.05,2.45.22,2.82,1.3,3.84,4.17,4A2.15,2.15,0,0,0,791,120.67Z"/><path d="M879.88,78.54a23.38,23.38,0,0,1-.07,7.07H869.12a1.24,1.24,0,0,1-1.29-1.21,15.85,15.85,0,0,0,.12-4.7c-.2-3.82-2.32-5.85-6-5.83s-5.78,2.09-5.91,5.91c-.11,3.23,0,6.46,0,9.7q0,8.8-.07,17.61l.06,6.82c.3,2.7.08,5.67,3.54,6.71,4.74,1.54,8.26-.78,8.31-5.48l0-8.64a.82.82,0,0,0,0-.39,4.86,4.86,0,0,0-.22-2.52c-1.64-.86-3.6.07-5.51-.88-.43-2.47-.15-5.09-.17-7.93h17.49c.59.47.23,1.21.43,1.81V99q.08,3.13.17,6.26l-.11,2.18c-.16,2.13,0,4.27,0,6.39,0,9.81-7.6,14.68-15.65,15.68-.49.06-1,.09-1.49.13l-.81.19-4.65-.27a13.36,13.36,0,0,1-4-.81L847.91,126c0-.9-.33-1.56-1.41-1.47v.06l.05-.62L845.2,121a27.68,27.68,0,0,1-1.06-6.56c0-3.29-.11-6.59-.17-9.88.12-5.19.33-10.38,0-15.57.41-3.81-.21-7.65.39-11.45,1-6.27,4.55-10.25,10.69-11.73a23.16,23.16,0,0,1,18.67,2.94C877.22,71,879,74.52,879.88,78.54Z"/><path d="M766.5,126.95c-.19.78.16,1.66-.75,3H754.57v-9h11.82q.09,1.59.17,3.19Z"/><path d="M84.93,35.79c-2.93-.41-5.94.29-8.77-.35-.86-1.83.07-3.71-.84-5.3a25.13,25.13,0,0,0,0-3.23c-.72-6-3.84-8.83-9.65-8.89-6.12-.07-9.16,2.57-10.23,8.58a25,25,0,0,0,.71,10.84c1.45,5.5,5,9.69,8.7,13.74,4.57,5,9.95,9.09,14.73,13.85,7.08,7,12.72,14.94,14.7,25,1.4,7.13,1.56,14.23-.63,21.22-3.42,10.93-11.38,16.31-22.34,17.95a58.08,58.08,0,0,1-14.69.2c-11.52-1.23-20.24-10-22-21.56-.29-1.89-.47-3.79-.7-5.69.18-3.42-.49-6.88.34-10.57H47c2.52.37,5.12-.41,7.9.52,0,.94,0,1.84,0,2.74,0,3-.06,6,.18,9,.44,5.31,3.58,8.55,8.17,8.74,7,.29,10.09-1.88,11.4-7.73.86-3.8.28-7.47-.66-11.09-2.13-8.14-8-13.67-13.9-19-4.63-4.19-9.4-8.19-13.62-12.82-8.48-9.31-12.85-20.08-12-32.8a13.06,13.06,0,0,0-.14-4.48c.86-1.75.89-3.7,1.39-5.54C38.59,8.72,45.24,2.53,55.89.87a41.76,41.76,0,0,1,20.43,1.4C86.66,5.88,91.43,13.94,93,24.26a38.11,38.11,0,0,1,.44,11.08C90.54,36,87.7,35.41,84.93,35.79Z"/><path d="M159.06,123.45q0-.42,0-.84c.87-2.13.36-4.33.32-6.51l0-5.15c0-5.82.06-11.63.05-17.45q0-18-.09-35.91V20.94c-7.92-.59-15.71,0-23.7-.37V.38H201V20.84H181.21a3.17,3.17,0,0,0-1,2.79q0,17.12,0,34.23a4.06,4.06,0,0,0,.38,2.19c-.46,5.57-.2,11.15-.21,16.73,0,14.24,0,28.48,0,42.73a49.14,49.14,0,0,0,0,9.05c-.41,1.44-1.61,1.2-2.66,1.21q-7.86,0-15.71,0c-.8,0-1.68.21-2.34-.51C159,127.37,160.07,125.3,159.06,123.45Z"/><path d="M22,96.64q-.06,14.49-.12,29c0,1.25,0,2.49,0,4H.94q0-24.56,0-49,0-5,0-10.09c0-6.61,0-13.22,0-19.83A5.08,5.08,0,0,0,0,47.51C-.23,46.49,1,46,.94,45,.82,40.83.82,36.61.77,32.4l0-6.25L.7,24.35a6.36,6.36,0,0,0,.14-3.1V.36H22c0,5.31,0,10.51,0,15.72a5.4,5.4,0,0,1,.27,1.42c-.76,9-.18,18-.32,27L22,46.08,22,83c.09,2.88-.36,5.75,0,8.63v1.79Z"/><path d="M117.41,129.78h-8.88c0-6.94,0-13.58,0-20.22q0-28.59,0-57.17c0-1.61-.06-3.21-.1-4.82,0-15.64,0-31.28,0-47.27,7.06-.34,13.82-.17,20.47.16.89,1,.6,2,.6,3q0,18,0,36c0,1.08.11,2.15.17,3.23-.06.83-.16,1.66-.17,2.48q0,37.3-.06,74.61c0,.62-.26,1.35.42,1.83-.76,2.74.14,5.64-.83,8.35l-1.86.13c-1.63-.31-3.27-.71-4.89,0l-3.28-.19A2,2,0,0,0,117.41,129.78Z"/><path d="M218.13,93.59l1.29-.81,1.38.54L218.51,95C217.8,94.56,218.24,94,218.13,93.59Z"/></g></g></svg>
